# xmcd
#
# Track frame offsets:
#	150
#	21459
#	51107
#	74586
#	95382
#	124272
#	162801
#
# Disc length: 2456 seconds
#
# Revision: 1
# Processed by: cddbd v1.5PL3 Copyright (c) Steve Scherf et al.
# Submitted via: audiograbber 1.82.01
#
DISCID=5e099607
DTITLE=Rory Gallagher - 1976-10-06 - Cologne Germany - Disc 1
DYEAR=1900
DGENRE=
TTITLE0=Rory Gallagher - Pistol Slapper Blues
TTITLE1=Rory Gallagher - Too Much Alcohol
TTITLE2=Rory Gallagher - Out On The Western Plain
TTITLE3=Rory Gallagher - Bankers Blues
TTITLE4=Rory Gallagher - Rag Mama Rag
TTITLE5=Rory Gallagher - Nothing But The Devil
TTITLE6=Rory Gallagher - Pistol Slapper Blues
EXTD=
EXTT0=
EXTT1=
EXTT2=
EXTT3=
EXTT4=
EXTT5=
EXTT6=
PLAYORDER=
